<?xml version="1.0" standalone="no"?>
<!DOCTYPE svg PUBLIC "-//W3C//DTD SVG 20010904//EN"
 "http://www.w3.org/TR/2001/REC-SVG-20010904/DTD/svg10.dtd">
<svg version="1.0" xmlns="http://www.w3.org/2000/svg"
 width="256.000000pt" height="256.000000pt" viewBox="0 0 256.000000 256.000000"
 preserveAspectRatio="xMidYMid meet">
<metadata>
Created by potrace 1.14, written by Peter Selinger 2001-2017
</metadata>
<g transform="translate(0.000000,256.000000) scale(0.100000,-0.100000)"
fill="#000000" stroke="none">
<path d="M1244 2527 c-48 -74 -65 -111 -82 -177 -10 -40 -9 -135 2 -177 23
-85 91 -203 118 -203 21 0 63 62 97 145 31 76 34 193 8 272 -22 62 -91 173
-109 173 -7 0 -22 -15 -34 -33z"/>
<path d="M551 2269 c-4 -13 -5 -33 -1 -44 4 -11 7 -22 7 -25 -2 -24 32 -129
61 -189 68 -140 217 -254 382 -292 137 -31 141 -26 104 126 -57 239 -248 407
-501 441 -38 5 -44 4 -52 -17z"/>
<path d="M1860 2264 c-116 -34 -174 -68 -251 -144 -91 -90 -133 -177 -173
-361 -3 -15 0 -34 8 -44 13 -17 18 -18 72 -5 33 7 68 15 79 17 11 2 57 21 102
43 158 77 264 219 302 407 20 97 16 113 -28 112 -14 0 -64 -11 -111 -25z"/>
<path d="M1277 1873 c-2 -5 -7 -40 -11 -80 -4 -39 -9 -82 -11 -95 -2 -13 -6
-52 -10 -88 -3 -36 -8 -87 -12 -115 -3 -27 -7 -59 -8 -70 -1 -11 -3 -24 -4
-29 0 -5 -30 22 -65 60 -57 62 -136 120 -190 140 -11 4 8 -20 41 -53 61 -61
124 -169 144 -246 5 -20 13 -54 19 -74 9 -34 6 -279 -4 -343 -3 -22 -16 -133
-21 -185 -2 -11 -5 -45 -8 -75 -4 -30 -9 -82 -13 -115 -3 -33 -11 -105 -17
-159 l-12 -100 -110 -1 c-163 -2 -273 -49 -335 -142 -34 -52 -33 -63 5 -39 92
60 242 68 440 22 11 -2 83 -21 160 -41 223 -59 397 -56 534 11 63 31 141 106
141 135 0 20 0 20 -27 1 -50 -35 -119 -54 -195 -55 -72 -1 -202 17 -225 31 -6
4 -14 34 -17 67 -3 33 -8 76 -11 95 -2 19 -7 58 -10 85 -3 28 -8 68 -10 90 -3
22 -7 63 -10 90 -8 81 -16 158 -20 181 -2 11 -6 52 -10 90 -4 38 -9 80 -11 94
-6 37 -6 179 1 225 20 136 84 273 164 355 55 56 56 58 23 45 -51 -22 -125 -79
-178 -138 -26 -29 -49 -52 -52 -52 -6 0 -7 6 -16 95 -7 71 -15 137 -21 188 -6
45 -18 174 -18 190 0 14 -4 15 -10 5z"/>
<path d="M457 1804 c-1 -1 -20 -4 -42 -7 -52 -6 -137 -39 -142 -54 -9 -25 108
-132 185 -170 64 -32 84 -37 155 -39 61 -1 100 4 152 20 89 28 93 43 28 110
-85 88 -175 132 -281 139 -29 2 -54 2 -55 1z"/>
<path d="M2000 1798 c-72 -13 -161 -62 -223 -125 -55 -55 -69 -85 -47 -98 34
-21 150 -43 220 -41 68 2 88 7 152 39 51 25 92 55 131 96 31 33 57 64 57 70 0
38 -191 77 -290 59z"/>
<path d="M887 1394 c-100 -29 -133 -46 -203 -97 -69 -51 -121 -117 -165 -210
-32 -69 -69 -221 -56 -233 19 -20 123 -4 217 33 187 74 322 236 354 426 3 15
8 36 11 47 4 11 3 29 0 40 -8 27 -57 25 -158 -6z"/>
<path d="M1515 1397 c-8 -31 28 -164 67 -245 44 -91 149 -196 241 -240 105
-51 251 -82 274 -59 15 15 -26 172 -66 253 -79 158 -217 262 -401 300 -92 20
-109 18 -115 -9z"/>
</g>
</svg>
